REM DIRINDEX 1\8,1\2\11,1\3\12,1\3\14,1\5\15,1\5\16,1\6\17,1\6\18,1\4\19,1\4\20,1\4\21,1\4\22,1\7\23,1\7\24,1\7\25,1\2\9\26,1\2\9\27,1\2\10\28,1\2\10\29,1\2\10\30,1\2\10\31,1\2\10\32,1\3\13\33,1\3\13\34,1\3\13\35
REM DIRNAME folder01,folder02,folder03,folder04,folder05,folder06,folder07,folder08,folder09,folder10,folder11,folder12,folder13,folder14,folder15,folder16,folder17,folder18,folder19,folder20,folder21,folder22,folder23,folder24,folder25,folder26,folder27,folder28,folder29,folder30,folder31,folder32,folder33,folder34,folder35
TITLE ""
FILE "1-14 014_UNIT2_WARM-UP-40.mp3" MP3
  TRACK 01 AUDIO
    TITLE "11:cjc123_0590"
    INDEX 01 00:00:00
  TRACK 02 AUDIO
    TITLE "0:"
    INDEX 01 00:02:65
  TRACK 03 AUDIO
    TITLE "26:cjc123_0591"
    INDEX 01 00:03:43
  TRACK 04 AUDIO
    TITLE "0:"
    INDEX 01 00:04:44
  TRACK 05 AUDIO
    TITLE "27:cjc123_0592"
    INDEX 01 00:04:62
  TRACK 06 AUDIO
    TITLE "0:"
    INDEX 01 00:06:06
  TRACK 07 AUDIO
    TITLE "26:cjc123_0593"
    INDEX 01 00:06:49
  TRACK 08 AUDIO
    TITLE "0:"
    INDEX 01 00:07:62
  TRACK 09 AUDIO
    TITLE "27:cjc123_0594"
    INDEX 01 00:08:01
  TRACK 10 AUDIO
    TITLE "0:"
    INDEX 01 00:09:47
  TRACK 11 AUDIO
    TITLE "26:cjc123_0595"
    INDEX 01 00:10:18
  TRACK 12 AUDIO
    TITLE "0:"
    INDEX 01 00:11:17
  TRACK 13 AUDIO
    TITLE "27:cjc123_0596"
    INDEX 01 00:11:33
  TRACK 14 AUDIO
    TITLE "0:"
    INDEX 01 00:12:46
  TRACK 15 AUDIO
    TITLE "26:cjc123_0597"
    INDEX 01 00:13:14
  TRACK 16 AUDIO
    TITLE "0:"
    INDEX 01 00:14:19
  TRACK 17 AUDIO
    TITLE "27:cjc123_0598"
    INDEX 01 00:14:51
  TRACK 18 AUDIO
    TITLE "0:"
    INDEX 01 00:15:30
  TRACK 19 AUDIO
    TITLE "26:cjc123_0599"
    INDEX 01 00:16:04
  TRACK 20 AUDIO
    TITLE "0:"
    INDEX 01 00:17:00
  TRACK 21 AUDIO
    TITLE "27:cjc123_0600"
    INDEX 01 00:17:12
  TRACK 22 AUDIO
    TITLE "0:"
    INDEX 01 00:18:07
  TRACK 23 AUDIO
    TITLE "26:cjc123_0601"
    INDEX 01 00:18:58
  TRACK 24 AUDIO
    TITLE "0:"
    INDEX 01 00:19:73
  TRACK 25 AUDIO
    TITLE "27:cjc123_0602"
    INDEX 01 00:20:12
  TRACK 26 AUDIO
    TITLE "0:"
    INDEX 01 00:21:47
  TRACK 27 AUDIO
    TITLE "26:cjc123_0603"
    INDEX 01 00:22:23
  TRACK 28 AUDIO
    TITLE "0:"
    INDEX 01 00:23:22
  TRACK 29 AUDIO
    TITLE "27:cjc123_0604"
    INDEX 01 00:23:36
  TRACK 30 AUDIO
    TITLE "0:"
    INDEX 01 00:24:55
  TRACK 31 AUDIO
    TITLE "26:cjc123_0605"
    INDEX 01 00:25:29
  TRACK 32 AUDIO
    TITLE "0:"
    INDEX 01 00:26:30
  TRACK 33 AUDIO
    TITLE "27:cjc123_0606"
    INDEX 01 00:26:40
  TRACK 34 AUDIO
    TITLE "0:"
    INDEX 01 00:28:15
  TRACK 35 AUDIO
    TITLE "26:cjc123_0607"
    INDEX 01 00:28:68
  TRACK 36 AUDIO
    TITLE "0:"
    INDEX 01 00:29:64
  TRACK 37 AUDIO
    TITLE "27:cjc123_0608"
    INDEX 01 00:30:08
  TRACK 38 AUDIO
    TITLE "0:"
    INDEX 01 00:31:47
  TRACK 39 AUDIO
    TITLE "26:cjc123_0609"
    INDEX 01 00:32:15
  TRACK 40 AUDIO
    TITLE "0:"
    INDEX 01 00:33:22
  TRACK 41 AUDIO
    TITLE "27:cjc123_0610"
    INDEX 01 00:33:34
  TRACK 42 AUDIO
    TITLE "0:"
    INDEX 01 00:35:06
  TRACK 43 AUDIO
    TITLE "26:cjc123_0611"
    INDEX 01 00:35:53
  TRACK 44 AUDIO
    TITLE "0:"
    INDEX 01 00:36:52
  TRACK 45 AUDIO
    TITLE "27:cjc123_0612"
    INDEX 01 00:36:70
  TRACK 46 AUDIO
    TITLE "0:"
    INDEX 01 00:38:37
  TRACK 47 AUDIO
    TITLE "26:cjc123_0613"
    INDEX 01 00:39:05
  TRACK 48 AUDIO
    TITLE "0:"
    INDEX 01 00:39:68
  TRACK 49 AUDIO
    TITLE "27:cjc123_0614"
    INDEX 01 00:40:03
  TRACK 50 AUDIO
    TITLE "0:"
    INDEX 01 00:41:34
  TRACK 51 AUDIO
    TITLE "26:cjc123_0615"
    INDEX 01 00:42:08
  TRACK 52 AUDIO
    TITLE "0:"
    INDEX 01 00:43:09
  TRACK 53 AUDIO
    TITLE "27:cjc123_0616"
    INDEX 01 00:43:27
  TRACK 54 AUDIO
    TITLE "0:"
    INDEX 01 00:44:65
  TRACK 55 AUDIO
    TITLE "26:cjc123_0617"
    INDEX 01 00:45:33
  TRACK 56 AUDIO
    TITLE "0:"
    INDEX 01 00:46:47
  TRACK 57 AUDIO
    TITLE "27:cjc123_0618"
    INDEX 01 00:46:58
  TRACK 58 AUDIO
    TITLE "0:"
    INDEX 01 00:47:58
  TRACK 59 AUDIO
    TITLE "26:cjc123_0619"
    INDEX 01 00:48:36
  TRACK 60 AUDIO
    TITLE "0:"
    INDEX 01 00:49:55
  TRACK 61 AUDIO
    TITLE "27:cjc123_0620"
    INDEX 01 00:49:74
  TRACK 62 AUDIO
    TITLE "0:"
    INDEX 01 00:52:18
  TRACK 63 AUDIO
    TITLE "26:cjc123_0621"
    INDEX 01 00:52:67
  TRACK 64 AUDIO
    TITLE "0:"
    INDEX 01 00:53:70
  TRACK 65 AUDIO
    TITLE "27:cjc123_0622"
    INDEX 01 00:54:03
  TRACK 66 AUDIO
    TITLE "0:"
    INDEX 01 00:55:06
  TRACK 67 AUDIO
    TITLE "26:cjc123_0623"
    INDEX 01 00:55:51
  TRACK 68 AUDIO
    TITLE "0:"
    INDEX 01 00:56:41
  TRACK 69 AUDIO
    TITLE "27:cjc123_0624"
    INDEX 01 00:56:57
  TRACK 70 AUDIO
    TITLE "0:"
    INDEX 01 00:58:01
  TRACK 71 AUDIO
    TITLE "26:cjc123_0625"
    INDEX 01 00:58:46
  TRACK 72 AUDIO
    TITLE "0:"
    INDEX 01 00:59:39
  TRACK 73 AUDIO
    TITLE "27:cjc123_0626"
    INDEX 01 00:59:49
  TRACK 74 AUDIO
    TITLE "0:"
    INDEX 01 01:00:59
  TRACK 75 AUDIO
    TITLE "26:cjc123_0627"
    INDEX 01 01:01:27
  TRACK 76 AUDIO
    TITLE "0:"
    INDEX 01 01:02:22
  TRACK 77 AUDIO
    TITLE "27:cjc123_0628"
    INDEX 01 01:02:38
  TRACK 78 AUDIO
    TITLE "0:"
    INDEX 01 01:03:31
  TRACK 79 AUDIO
    TITLE "26:cjc123_0629"
    INDEX 01 01:04:05
  TRACK 80 AUDIO
    TITLE "0:"
    INDEX 01 01:05:26
  TRACK 81 AUDIO
    TITLE "27:cjc123_0630"
    INDEX 01 01:05:40
  TRACK 82 AUDIO
    TITLE "0:"
    INDEX 01 01:06:63
  TRACK 83 AUDIO
    TITLE "26:cjc123_0631"
    INDEX 01 01:07:33
  TRACK 84 AUDIO
    TITLE "0:"
    INDEX 01 01:08:44
  TRACK 85 AUDIO
    TITLE "27:cjc123_0632"
    INDEX 01 01:08:58
  TRACK 86 AUDIO
    TITLE "0:"
    INDEX 01 01:09:63
  TRACK 87 AUDIO
    TITLE "26:cjc123_0633"
    INDEX 01 01:10:35
  TRACK 88 AUDIO
    TITLE "0:"
    INDEX 01 01:11:39
  TRACK 89 AUDIO
    TITLE "27:cjc123_0634"
    INDEX 01 01:11:52
  TRACK 90 AUDIO
    TITLE "0:"
    INDEX 01 01:12:64
  TRACK 91 AUDIO
    TITLE "26:cjc123_0635"
    INDEX 01 01:13:38
  TRACK 92 AUDIO
    TITLE "0:"
    INDEX 01 01:14:51
  TRACK 93 AUDIO
    TITLE "27:cjc123_0636"
    INDEX 01 01:15:01
  TRACK 94 AUDIO
    TITLE "0:"
    INDEX 01 01:16:32
  TRACK 95 AUDIO
    TITLE "26:cjc123_0637"
    INDEX 01 01:17:00
  TRACK 96 AUDIO
    TITLE "0:"
    INDEX 01 01:18:15
  TRACK 97 AUDIO
    TITLE "27:cjc123_0638"
    INDEX 01 01:18:31
  TRACK 98 AUDIO
    TITLE "0:"
    INDEX 01 01:19:44
  TRACK 99 AUDIO
    TITLE "26:cjc123_0639"
    INDEX 01 01:20:14
  TRACK 100 AUDIO
    TITLE "0:"
    INDEX 01 01:21:25
  TRACK 101 AUDIO
    TITLE "27:cjc123_0640"
    INDEX 01 01:21:45
  TRACK 102 AUDIO
    TITLE "0:"
    INDEX 01 01:22:66
  TRACK 103 AUDIO
    TITLE "26:cjc123_0641"
    INDEX 01 01:23:40
  TRACK 104 AUDIO
    TITLE "0:"
    INDEX 01 01:24:37
  TRACK 105 AUDIO
    TITLE "27:cjc123_0642"
    INDEX 01 01:24:47
  TRACK 106 AUDIO
    TITLE "0:"
    INDEX 01 01:25:57
  TRACK 107 AUDIO
    TITLE "26:cjc123_0643"
    INDEX 01 01:26:29
  TRACK 108 AUDIO
    TITLE "0:"
    INDEX 01 01:27:40
  TRACK 109 AUDIO
    TITLE "27:cjc123_0644"
    INDEX 01 01:27:65
  TRACK 110 AUDIO
    TITLE "0:"
    INDEX 01 01:28:72
  TRACK 111 AUDIO
    TITLE "26:cjc123_0645"
    INDEX 01 01:29:43
  TRACK 112 AUDIO
    TITLE "0:"
    INDEX 01 01:30:36
  TRACK 113 AUDIO
    TITLE "27:cjc123_0646"
    INDEX 01 01:30:48
  TRACK 114 AUDIO
    TITLE "0:"
    INDEX 01 01:31:34
  TRACK 115 AUDIO
    TITLE "26:cjc123_0647"
    INDEX 01 01:32:17
  TRACK 116 AUDIO
    TITLE "0:"
    INDEX 01 01:33:27
  TRACK 117 AUDIO
    TITLE "27:cjc123_0648"
    INDEX 01 01:33:38
  TRACK 118 AUDIO
    TITLE "0:"
    INDEX 01 01:34:57
  TRACK 119 AUDIO
    TITLE "26:cjc123_0649"
    INDEX 01 01:35:26
  TRACK 120 AUDIO
    TITLE "0:"
    INDEX 01 01:36:13
  TRACK 121 AUDIO
    TITLE "27:cjc123_0650"
    INDEX 01 01:36:29
  TRACK 122 AUDIO
    TITLE "0:"
    INDEX 01 01:37:15
  TRACK 123 AUDIO
    TITLE "26:cjc123_0651"
    INDEX 01 01:37:66
  TRACK 124 AUDIO
    TITLE "0:"
    INDEX 01 01:38:61
  TRACK 125 AUDIO
    TITLE "27:cjc123_0652"
    INDEX 01 01:38:69
  TRACK 126 AUDIO
    TITLE "0:"
    INDEX 01 01:39:51
  TRACK 127 AUDIO
    TITLE "26:cjc123_0653"
    INDEX 01 01:40:23
  TRACK 128 AUDIO
    TITLE "0:"
    INDEX 01 01:41:22
  TRACK 129 AUDIO
    TITLE "27:cjc123_0654"
    INDEX 01 01:41:40
  TRACK 130 AUDIO
    TITLE "0:"
    INDEX 01 01:42:65
  TRACK 131 AUDIO
    TITLE "26:cjc123_0655"
    INDEX 01 01:43:35
  TRACK 132 AUDIO
    TITLE "0:"
    INDEX 01 01:44:28
  TRACK 133 AUDIO
    TITLE "27:cjc123_0656"
    INDEX 01 01:44:60
  TRACK 134 AUDIO
    TITLE "0:"
    INDEX 01 01:45:69
  TRACK 135 AUDIO
    TITLE "26:cjc123_0657"
    INDEX 01 01:46:35
  TRACK 136 AUDIO
    TITLE "0:"
    INDEX 01 01:47:44
  TRACK 137 AUDIO
    TITLE "27:cjc123_0658"
    INDEX 01 01:47:58
  TRACK 138 AUDIO
    TITLE "0:"
    INDEX 01 01:48:50
  TRACK 139 AUDIO
    TITLE "26:cjc123_0659"
    INDEX 01 01:49:32
  TRACK 140 AUDIO
    TITLE "0:"
    INDEX 01 01:50:39
  TRACK 141 AUDIO
    TITLE "27:cjc123_0660"
    INDEX 01 01:50:53
  TRACK 142 AUDIO
    TITLE "0:"
    INDEX 01 01:51:60
  TRACK 143 AUDIO
    TITLE "26:cjc123_0661"
    INDEX 01 01:52:32
  TRACK 144 AUDIO
    TITLE "0:"
    INDEX 01 01:53:31
  TRACK 145 AUDIO
    TITLE "27:cjc123_0662"
    INDEX 01 01:53:41
  TRACK 146 AUDIO
    TITLE "0:"
    INDEX 01 01:54:48
  TRACK 147 AUDIO
    TITLE "26:cjc123_0663"
    INDEX 01 01:55:24
  TRACK 148 AUDIO
    TITLE "0:"
    INDEX 01 01:56:28
  TRACK 149 AUDIO
    TITLE "27:cjc123_0664"
    INDEX 01 01:56:43
  TRACK 150 AUDIO
    TITLE "0:"
    INDEX 01 01:57:51
  TRACK 151 AUDIO
    TITLE "26:cjc123_0665"
    INDEX 01 01:58:23
  TRACK 152 AUDIO
    TITLE "0:"
    INDEX 01 01:59:28
  TRACK 153 AUDIO
    TITLE "27:cjc123_0666"
    INDEX 01 01:59:42
  TRACK 154 AUDIO
    TITLE "0:"
    INDEX 01 02:00:37
  TRACK 155 AUDIO
    TITLE "26:cjc123_0667"
    INDEX 01 02:01:19
  TRACK 156 AUDIO
    TITLE "0:"
    INDEX 01 02:02:32
  TRACK 157 AUDIO
    TITLE "27:cjc123_0668"
    INDEX 01 02:02:40
  TRACK 158 AUDIO
    TITLE "0:"
    INDEX 01 02:03:51
  TRACK 159 AUDIO
    TITLE "26:cjc123_0669"
    INDEX 01 02:04:23
  TRACK 160 AUDIO
    TITLE "0:"
    INDEX 01 02:05:31
  TRACK 161 AUDIO
    TITLE "27:cjc123_0670"
    INDEX 01 02:05:44
  TRACK 162 AUDIO
    TITLE "0:"
    INDEX 01 02:06:69
